<?xml version="1.0" encoding="UTF-8" standalone="no"?>
<!DOCTYPE svg PUBLIC "-//W3C//DTD SVG 1.1//EN"
 "http://www.w3.org/Graphics/SVG/1.1/DTD/svg11.dtd">
<!-- Generated by graphviz version 9.0.0 (20230911.1827)
 -->
<!-- Title: G Pages: 1 -->
<svg width="538pt" height="404pt"
 viewBox="0.00 0.00 538.20 404.00" xmlns="http://www.w3.org/2000/svg" xmlns:xlink="http://www.w3.org/1999/xlink">
<g id="graph0" class="graph" transform="scale(1 1) rotate(0) translate(4 400)">
<title>G</title>
<polygon fill="white" stroke="none" points="-4,4 -4,-400 534.2,-400 534.2,4 -4,4"/>
<!-- jqt -->
<g id="node1" class="node">
<title>jqt</title>
<ellipse fill="none" stroke="black" cx="86" cy="-378" rx="27" ry="18"/>
<text text-anchor="middle" x="86" y="-372.95" font-family="Times,serif" font-size="14.00">jqt</text>
</g>
<!-- rhn -->
<g id="node2" class="node">
<title>rhn</title>
<ellipse fill="none" stroke="black" cx="114" cy="-306" rx="27" ry="18"/>
<text text-anchor="middle" x="114" y="-300.95" font-family="Times,serif" font-size="14.00">rhn</text>
</g>
<!-- jqt&#45;&#45;rhn -->
<g id="edge1" class="edge">
<title>jqt&#45;&#45;rhn</title>
<path fill="none" stroke="black" d="M92.64,-360.41C97.1,-349.25 102.96,-334.6 107.41,-323.47"/>
</g>
<!-- xhk -->
<g id="node3" class="node">
<title>xhk</title>
<ellipse fill="none" stroke="black" cx="59" cy="-234" rx="27" ry="18"/>
<text text-anchor="middle" x="59" y="-228.95" font-family="Times,serif" font-size="14.00">xhk</text>
</g>
<!-- jqt&#45;&#45;xhk -->
<g id="edge2" class="edge">
<title>jqt&#45;&#45;xhk</title>
<path fill="none" stroke="black" d="M82.74,-359.87C77.55,-332.58 67.47,-279.52 62.27,-252.19"/>
</g>
<!-- nvd -->
<g id="node4" class="node">
<title>nvd</title>
<ellipse fill="none" stroke="black" cx="435" cy="-306" rx="27" ry="18"/>
<text text-anchor="middle" x="435" y="-300.95" font-family="Times,serif" font-size="14.00">nvd</text>
</g>
<!-- jqt&#45;&#45;nvd -->
<g id="edge3" class="edge">
<title>jqt&#45;&#45;nvd</title>
<path fill="none" stroke="black" d="M111.66,-371.85C176.2,-358.91 344.72,-325.11 409.3,-312.15"/>
</g>
<!-- ntq -->
<g id="node14" class="node">
<title>ntq</title>
<ellipse fill="none" stroke="black" cx="76" cy="-18" rx="27" ry="18"/>
<text text-anchor="middle" x="76" y="-12.95" font-family="Times,serif" font-size="14.00">ntq</text>
</g>
<!-- jqt&#45;&#45;ntq -->
<g id="edge4" class="edge">
<title>jqt&#45;&#45;ntq</title>
<path fill="none" stroke="black" d="M70.23,-362.98C45.4,-339.28 0,-288.61 0,-235 0,-235 0,-235 0,-161 0,-109.27 39.69,-58.15 61.7,-33.77"/>
</g>
<!-- rhn&#45;&#45;xhk -->
<g id="edge5" class="edge">
<title>rhn&#45;&#45;xhk</title>
<path fill="none" stroke="black" d="M101.79,-289.46C92.68,-277.86 80.28,-262.08 71.17,-250.49"/>
</g>
<!-- hfx -->
<g id="node9" class="node">
<title>hfx</title>
<ellipse fill="none" stroke="black" cx="169" cy="-162" rx="27" ry="18"/>
<text text-anchor="middle" x="169" y="-156.95" font-family="Times,serif" font-size="14.00">hfx</text>
</g>
<!-- rhn&#45;&#45;hfx -->
<g id="edge7" class="edge">
<title>rhn&#45;&#45;hfx</title>
<path fill="none" stroke="black" d="M120.53,-288.15C131.11,-260.82 151.9,-207.14 162.48,-179.82"/>
</g>
<!-- bvb -->
<g id="node13" class="node">
<title>bvb</title>
<ellipse fill="none" stroke="black" cx="114" cy="-90" rx="27" ry="18"/>
<text text-anchor="middle" x="114" y="-84.95" font-family="Times,serif" font-size="14.00">bvb</text>
</g>
<!-- rhn&#45;&#45;bvb -->
<g id="edge6" class="edge">
<title>rhn&#45;&#45;bvb</title>
<path fill="none" stroke="black" d="M114,-287.85C114,-247.78 114,-148.38 114,-108.23"/>
</g>
<!-- xhk&#45;&#45;hfx -->
<g id="edge8" class="edge">
<title>xhk&#45;&#45;hfx</title>
<path fill="none" stroke="black" d="M78.16,-220.81C98.35,-207.96 129.95,-187.85 150.06,-175.05"/>
</g>
<!-- xhk&#45;&#45;bvb -->
<g id="edge9" class="edge">
<title>xhk&#45;&#45;bvb</title>
<path fill="none" stroke="black" d="M65.53,-216.15C76.11,-188.82 96.9,-135.14 107.48,-107.82"/>
</g>
<!-- xhk&#45;&#45;ntq -->
<g id="edge10" class="edge">
<title>xhk&#45;&#45;ntq</title>
<path fill="none" stroke="black" d="M60.36,-215.85C63.55,-175.78 71.44,-76.38 74.63,-36.23"/>
</g>
<!-- pzl -->
<g id="node7" class="node">
<title>pzl</title>
<ellipse fill="none" stroke="black" cx="308" cy="-234" rx="27" ry="18"/>
<text text-anchor="middle" x="308" y="-228.95" font-family="Times,serif" font-size="14.00">pzl</text>
</g>
<!-- nvd&#45;&#45;pzl -->
<g id="edge12" class="edge">
<title>nvd&#45;&#45;pzl</title>
<path fill="none" stroke="black" d="M414.6,-293.75C390.9,-280.69 352.03,-259.27 328.35,-246.22"/>
</g>
<!-- cmg -->
<g id="node10" class="node">
<title>cmg</title>
<ellipse fill="none" stroke="black" cx="490" cy="-234" rx="27.3" ry="18"/>
<text text-anchor="middle" x="490" y="-228.95" font-family="Times,serif" font-size="14.00">cmg</text>
</g>
<!-- nvd&#45;&#45;cmg -->
<g id="edge11" class="edge">
<title>nvd&#45;&#45;cmg</title>
<path fill="none" stroke="black" d="M447.21,-289.46C456.32,-277.86 468.72,-262.08 477.83,-250.49"/>
</g>
<!-- qnr -->
<g id="node11" class="node">
<title>qnr</title>
<ellipse fill="none" stroke="black" cx="397" cy="-162" rx="27" ry="18"/>
<text text-anchor="middle" x="397" y="-156.95" font-family="Times,serif" font-size="14.00">qnr</text>
</g>
<!-- nvd&#45;&#45;qnr -->
<g id="edge13" class="edge">
<title>nvd&#45;&#45;qnr</title>
<path fill="none" stroke="black" d="M432.03,-287.77C428.75,-269.72 423.01,-240.62 416,-216 412.47,-203.59 407.53,-189.89 403.57,-179.52"/>
</g>
<!-- lhk -->
<g id="node12" class="node">
<title>lhk</title>
<ellipse fill="none" stroke="black" cx="471" cy="-90" rx="27" ry="18"/>
<text text-anchor="middle" x="471" y="-84.95" font-family="Times,serif" font-size="14.00">lhk</text>
</g>
<!-- nvd&#45;&#45;lhk -->
<g id="edge14" class="edge">
<title>nvd&#45;&#45;lhk</title>
<path fill="none" stroke="black" d="M459.72,-298.23C481.5,-290.82 511.88,-276.57 526,-252 535.17,-236.04 526.55,-161.07 519,-144 512.07,-128.33 498.66,-114.16 487.78,-104.41"/>
</g>
<!-- rsh -->
<g id="node5" class="node">
<title>rsh</title>
<ellipse fill="none" stroke="black" cx="281" cy="-306" rx="27" ry="18"/>
<text text-anchor="middle" x="281" y="-300.95" font-family="Times,serif" font-size="14.00">rsh</text>
</g>
<!-- frs -->
<g id="node6" class="node">
<title>frs</title>
<ellipse fill="none" stroke="black" cx="380" cy="-234" rx="27" ry="18"/>
<text text-anchor="middle" x="380" y="-228.95" font-family="Times,serif" font-size="14.00">frs</text>
</g>
<!-- rsh&#45;&#45;frs -->
<g id="edge15" class="edge">
<title>rsh&#45;&#45;frs</title>
<path fill="none" stroke="black" d="M299.16,-292.16C317.02,-279.53 344.13,-260.36 361.96,-247.76"/>
</g>
<!-- rsh&#45;&#45;pzl -->
<g id="edge16" class="edge">
<title>rsh&#45;&#45;pzl</title>
<path fill="none" stroke="black" d="M287.54,-288.05C291.78,-277.05 297.29,-262.76 301.52,-251.79"/>
</g>
<!-- lsr -->
<g id="node8" class="node">
<title>lsr</title>
<ellipse fill="none" stroke="black" cx="287" cy="-162" rx="27" ry="18"/>
<text text-anchor="middle" x="287" y="-156.95" font-family="Times,serif" font-size="14.00">lsr</text>
</g>
<!-- rsh&#45;&#45;lsr -->
<g id="edge17" class="edge">
<title>rsh&#45;&#45;lsr</title>
<path fill="none" stroke="black" d="M276.85,-287.89C273.06,-269.94 268.54,-240.92 272,-216 273.71,-203.69 277.55,-190.21 280.92,-179.93"/>
</g>
<!-- rzs -->
<g id="node15" class="node">
<title>rzs</title>
<ellipse fill="none" stroke="black" cx="342" cy="-90" rx="27" ry="18"/>
<text text-anchor="middle" x="342" y="-84.95" font-family="Times,serif" font-size="14.00">rzs</text>
</g>
<!-- rsh&#45;&#45;rzs -->
<g id="edge18" class="edge">
<title>rsh&#45;&#45;rzs</title>
<path fill="none" stroke="black" d="M271.21,-288.72C254.27,-258.23 223.79,-191.33 251,-144 265.12,-119.43 295.5,-105.18 317.28,-97.77"/>
</g>
<!-- frs&#45;&#45;lsr -->
<g id="edge21" class="edge">
<title>frs&#45;&#45;lsr</title>
<path fill="none" stroke="black" d="M362.51,-219.83C345.88,-207.32 321.02,-188.6 304.41,-176.11"/>
</g>
<!-- frs&#45;&#45;qnr -->
<g id="edge19" class="edge">
<title>frs&#45;&#45;qnr</title>
<path fill="none" stroke="black" d="M384.12,-216.05C386.75,-205.21 390.16,-191.18 392.8,-180.28"/>
</g>
<!-- frs&#45;&#45;lhk -->
<g id="edge20" class="edge">
<title>frs&#45;&#45;lhk</title>
<path fill="none" stroke="black" d="M369.99,-216.98C359.63,-198.15 346.8,-166.61 361,-144 379.27,-114.92 418.47,-101.42 444.79,-95.43"/>
</g>
<!-- pzl&#45;&#45;lsr -->
<g id="edge22" class="edge">
<title>pzl&#45;&#45;lsr</title>
<path fill="none" stroke="black" d="M302.92,-216.05C299.61,-205.05 295.33,-190.76 292.04,-179.79"/>
</g>
<!-- pzl&#45;&#45;hfx -->
<g id="edge23" class="edge">
<title>pzl&#45;&#45;hfx</title>
<path fill="none" stroke="black" d="M286.89,-222.37C260.61,-209.14 216.01,-186.68 189.85,-173.5"/>
</g>
<!-- lsr&#45;&#45;lhk -->
<g id="edge24" class="edge">
<title>lsr&#45;&#45;lhk</title>
<path fill="none" stroke="black" d="M309.49,-151.49C315.49,-149.01 321.97,-146.36 328,-144 369.78,-127.6 418.92,-109.69 447.36,-99.45"/>
</g>
<!-- lsr&#45;&#45;rzs -->
<g id="edge25" class="edge">
<title>lsr&#45;&#45;rzs</title>
<path fill="none" stroke="black" d="M299.21,-145.46C308.32,-133.86 320.72,-118.08 329.83,-106.49"/>
</g>
<!-- hfx&#45;&#45;bvb -->
<g id="edge26" class="edge">
<title>hfx&#45;&#45;bvb</title>
<path fill="none" stroke="black" d="M156.79,-145.46C147.68,-133.86 135.28,-118.08 126.17,-106.49"/>
</g>
<!-- hfx&#45;&#45;ntq -->
<g id="edge27" class="edge">
<title>hfx&#45;&#45;ntq</title>
<path fill="none" stroke="black" d="M168.92,-143.52C168.05,-124.48 164.28,-93.81 150,-72 137.27,-52.57 114.76,-37.98 97.9,-29.07"/>
</g>
<!-- cmg&#45;&#45;qnr -->
<g id="edge28" class="edge">
<title>cmg&#45;&#45;qnr</title>
<path fill="none" stroke="black" d="M472.51,-219.83C455.88,-207.32 431.02,-188.6 414.41,-176.11"/>
</g>
<!-- cmg&#45;&#45;lhk -->
<g id="edge29" class="edge">
<title>cmg&#45;&#45;lhk</title>
<path fill="none" stroke="black" d="M496.86,-216.33C503.32,-198.25 511.05,-168.66 504,-144 500.01,-130.03 491.15,-116.17 483.62,-106.12"/>
</g>
<!-- cmg&#45;&#45;bvb -->
<g id="edge30" class="edge">
<title>cmg&#45;&#45;bvb</title>
<path fill="none" stroke="black" d="M481.56,-216.53C469.37,-193.4 446.79,-153.09 433,-144 384.84,-112.25 208.44,-97.32 140.72,-92.67"/>
</g>
<!-- cmg&#45;&#45;rzs -->
<g id="edge31" class="edge">
<title>cmg&#45;&#45;rzs</title>
<path fill="none" stroke="black" d="M489.67,-215.52C488.4,-195.9 483.52,-164.18 466,-144 440.67,-114.83 396.48,-101.25 368.26,-95.27"/>
</g>
<!-- qnr&#45;&#45;rzs -->
<g id="edge32" class="edge">
<title>qnr&#45;&#45;rzs</title>
<path fill="none" stroke="black" d="M384.79,-145.46C375.68,-133.86 363.28,-118.08 354.17,-106.49"/>
</g>
<!-- bvb&#45;&#45;ntq -->
<g id="edge33" class="edge">
<title>bvb&#45;&#45;ntq</title>
<path fill="none" stroke="black" d="M105.19,-72.76C99.05,-61.46 90.89,-46.44 84.77,-35.15"/>
</g>
</g>
</svg>
